<?xml version="1.0" encoding="UTF-8" standalone="no"?>
<svg
   id="LOGO"
   version="1.1"
   viewBox="0 0 731.70822 149.94999"
   sodipodi:docname="gitlab-logo-100.svg"
   inkscape:export-filename="gitlab-logo-100.svg"
   inkscape:export-xdpi="96"
   inkscape:export-ydpi="96"
   width="731.70819"
   height="149.95"
   xmlns:inkscape="http://www.inkscape.org/namespaces/inkscape"
   xmlns:sodipodi="http://sodipodi.sourceforge.net/DTD/sodipodi-0.dtd"
   xmlns="http://www.w3.org/2000/svg"
   xmlns:svg="http://www.w3.org/2000/svg">
  <sodipodi:namedview
     id="namedview3572"
     pagecolor="#ffffff"
     bordercolor="#000000"
     borderopacity="0.25"
     inkscape:showpageshadow="2"
     inkscape:pageopacity="0.0"
     inkscape:pagecheckerboard="0"
     inkscape:deskcolor="#d1d1d1"
     showgrid="false" />
  <!-- Generator: Adobe Illustrator 29.0.0, SVG Export Plug-In . SVG Version: 2.1.0 Build 186)  -->
  <defs
     id="defs3545">
    <style
       id="style3543">
      .st0 {
        fill: #fca326;
      }

      .st1 {
        fill: #fc6d26;
      }

      .st2 {
        fill: #e24329;
      }

      .st3 {
        fill: #171321;
      }
    </style>
  </defs>
  <g
     id="g3559"
     transform="translate(-110.79178,-115)">
    <path
       class="st3"
       d="m 428.9,171.5 h 22.8 c -3.8,-24.2 -24.8,-41.1 -52.1,-41.1 -27.3,0 -56.5,23.7 -56.5,63.5 0,39.8 23.1,63.3 57.2,63.3 34.1,0 52.4,-19.6 52.4,-51.5 v -14.8 h -50.1 v 17.5 H 431 c -0.4,17.6 -12.1,28.7 -30.7,28.7 -18.6,0 -34.8,-15.5 -34.8,-43.4 0,-27.9 14.4,-43.2 34.3,-43.2 19.9,0 25,8 29,21 z"
       id="path3547" />
    <path
       class="st3"
       d="m 467.8,255.5 h 21.8 V 163 h -21.8 z m 10.9,-107.2 c 6.9,0 12.6,-5.3 12.6,-11.8 0,-6.5 -5.7,-11.9 -12.6,-11.9 -6.9,0 -12.7,5.3 -12.7,11.9 0,6.6 5.7,11.8 12.7,11.8 z"
       id="path3549" />
    <path
       class="st3"
       d="M 554.9,163 H 536.6 V 140.8 H 514.8 V 163 h -13.1 v 16.9 h 13.1 v 51.5 c 0,17.4 12.5,26 28.9,25.5 6.2,-0.2 10.5,-1.4 12.8,-2.2 l -3.7,-17.1 c -1.2,0.3 -3.7,0.8 -6.4,0.8 -5.5,0 -9.9,-1.9 -9.9,-10.7 v -47.8 h 18.3 V 163 Z"
       id="path3551" />
    <path
       class="st3"
       d="m 571.8,255.5 h 76.7 V 236.8 H 594.2 V 132.1 h -22.4 z"
       id="path3553" />
    <path
       class="st3"
       d="m 690.3,257.4 c 14.5,0 23.2,-6.8 27.2,-14.6 h 0.7 v 12.7 h 21 v -61.9 c 0,-24.5 -19.9,-31.8 -37.6,-31.8 -17.7,0 -34.4,8.7 -39.2,25.5 l 20.4,2.9 c 2.2,-6.3 8.3,-11.7 19,-11.7 10.7,0 15.7,5.2 15.7,14.3 v 0.4 c 0,6.3 -6.6,6.6 -22.9,8.3 -18,1.9 -35.1,7.3 -35.1,28.1 0,20.8 13.3,27.8 31,27.8 z m 7.1,-16.1 c -9.1,0 -15.6,-4.2 -15.6,-12.2 0,-8 7.3,-11.9 17.1,-13.3 5.7,-0.8 17.2,-2.2 20,-4.5 v 10.9 c 0,10.3 -8.3,19 -21.5,19 v 0 z"
       id="path3555" />
    <path
       class="st3"
       d="m 755.2,255.5 h 21.4 v -14.6 h 1.3 c 3.4,6.7 10.6,16.2 26.5,16.2 15.9,0 38.1,-17.3 38.1,-47.8 0,-30.5 -16.8,-47.6 -38.2,-47.6 -21.4,0 -23.1,9.8 -26.5,16.5 h -0.9 V 132 h -21.8 v 123.4 h 0.1 z m 21.4,-46.3 c 0,-18 7.7,-29.6 21.8,-29.6 14.1,0 22,12.4 22,29.6 0,17.2 -7.6,30 -22,30 -14.4,0 -21.8,-12.1 -21.8,-30 z"
       id="path3557" />
  </g>
  <g
     id="g3569"
     transform="translate(-148.79178,-115)">
    <path
       class="st2"
       d="m 302,174.4 -0.2,-0.6 -21.2,-55.3 c -0.4,-1.1 -1.2,-2 -2.2,-2.6 -1,-0.6 -2.1,-0.9 -3.3,-0.9 -1.2,0 -2.3,0.5 -3.2,1.2 -0.9,0.7 -1.6,1.7 -1.9,2.9 l -14.3,43.8 h -57.9 l -14.3,-43.8 c -0.3,-1.1 -1,-2.1 -1.9,-2.9 -0.9,-0.7 -2,-1.2 -3.2,-1.2 -1.2,0 -2.3,0.2 -3.3,0.9 -1,0.6 -1.8,1.5 -2.2,2.6 l -21.2,55.3 -0.2,0.6 c -6.3,16.4 -0.9,34.9 13.1,45.5 h 0.2 c 0,0.1 32.3,24.3 32.3,24.3 l 16,12.1 9.7,7.3 c 2.3,1.8 5.6,1.8 7.9,0 l 9.7,-7.3 16,-12.1 32.5,-24.3 v 0 c 14,-10.6 19.3,-29.1 13,-45.5 z"
       id="path3561" />
    <path
       class="st1"
       d="m 302,174.4 -0.2,-0.6 c -10.5,2.2 -20.2,6.6 -28.5,12.8 -0.1,0 -25.2,19.1 -46.6,35.2 15.8,12 29.6,22.4 29.6,22.4 l 32.5,-24.3 v 0 c 14,-10.6 19.3,-29.1 13,-45.5 z"
       id="path3563" />
    <path
       class="st0"
       d="m 197,244.2 16,12.1 9.7,7.3 c 2.3,1.8 5.6,1.8 7.9,0 l 9.7,-7.3 16,-12.1 c 0,0 -13.8,-10.4 -29.6,-22.4 -15.9,12 -29.7,22.4 -29.7,22.4 z"
       id="path3565" />
    <path
       class="st1"
       d="m 180.1,186.6 c -8.3,-6.2 -18,-10.7 -28.5,-12.8 l -0.2,0.6 c -6.3,16.4 -0.9,34.9 13.1,45.5 h 0.2 c 0,0.1 32.3,24.3 32.3,24.3 0,0 13.8,-10.4 29.7,-22.4 -21.3,-16.1 -46.4,-35.1 -46.6,-35.2 z"
       id="path3567" />
  </g>
</svg>
