<?xml version="1.0" encoding="UTF-8" standalone="no"?>
<svg
   version="1.1"
   width="512"
   height="512"
   id="svg16"
   sodipodi:docname="freepik__i_have_a_project_called_ui_components.svg"
   inkscape:version="1.2.2 (b0a8486541, 2022-12-01)"
   xmlns:inkscape="http://www.inkscape.org/namespaces/inkscape"
   xmlns:sodipodi="http://sodipodi.sourceforge.net/DTD/sodipodi-0.dtd"
   xmlns="http://www.w3.org/2000/svg"
   xmlns:svg="http://www.w3.org/2000/svg">
  <defs
     id="defs20" />
  <sodipodi:namedview
     id="namedview18"
     pagecolor="#ffffff"
     bordercolor="#000000"
     borderopacity="0.25"
     inkscape:showpageshadow="2"
     inkscape:pageopacity="0.0"
     inkscape:pagecheckerboard="0"
     inkscape:deskcolor="#d1d1d1"
     showgrid="false"
     inkscape:zoom="1.0029297"
     inkscape:cx="363.43525"
     inkscape:cy="48.856865"
     inkscape:window-width="2560"
     inkscape:window-height="1356"
     inkscape:window-x="1080"
     inkscape:window-y="240"
     inkscape:window-maximized="1"
     inkscape:current-layer="svg16" />
  <path
     d="M0 0 C1.46172561 -0.00346683 2.92344859 -0.0082382 4.38516623 -0.01418173 C8.35661621 -0.02658101 12.32784695 -0.02057253 16.29929721 -0.01122308 C20.6000076 -0.0043869 24.90068238 -0.01493632 29.2013855 -0.02316284 C37.60889063 -0.03645433 46.01631509 -0.03364287 54.42382329 -0.02492492 C61.26162622 -0.0181302 68.09940665 -0.01723936 74.93721199 -0.02049637 C76.40095094 -0.02118592 76.40095094 -0.02118592 77.89426037 -0.0218894 C79.87708366 -0.02284864 81.85990695 -0.02382128 83.84273023 -0.02480717 C102.40588189 -0.03334775 120.968989 -0.02354811 139.53213335 -0.00740607 C155.43359969 0.00599378 171.3350003 0.00366916 187.23646545 -0.01016235 C205.73485872 -0.02624538 224.23321299 -0.03252169 242.73161227 -0.02332556 C244.70715844 -0.02236999 246.68270462 -0.02142688 248.65825081 -0.02049637 C249.63006963 -0.02003354 250.60188846 -0.01957072 251.60315634 -0.01909386 C258.42614068 -0.01651198 265.24910013 -0.02085767 272.07208061 -0.02793503 C280.39655897 -0.03638064 288.72095255 -0.03400597 297.04542129 -0.0180928 C301.28643815 -0.01025074 305.52731406 -0.00704835 309.76832962 -0.01704025 C313.66133929 -0.02607297 317.55407925 -0.02091556 321.44706494 -0.0051076 C322.84460131 -0.00179563 324.24216115 -0.00337145 325.63968205 -0.01073496 C352.29082748 -0.14022975 374.7444373 8.82005521 393.86463928 27.38095093 C405.04680347 38.76839517 412.2936775 52.17984547 416.86463928 67.38095093 C417.20990976 68.47071259 417.55518024 69.56047426 417.91091347 70.68325901 C419.45710551 76.98730398 419.14753063 83.44622029 419.13206482 89.89558411 C419.1358047 91.37530326 419.14040757 92.85502043 419.14579546 94.3347345 C419.15799982 98.38842864 419.15776801 102.44204009 419.15540671 106.4957484 C419.15499788 110.87294649 419.16604428 115.2501183 419.17552185 119.62730408 C419.1921204 128.19984794 419.19763094 136.7723643 419.19874661 145.34492289 C419.19969793 152.31779805 419.20381247 159.29066416 419.21014786 166.26353645 C419.22775968 186.05166982 419.2369872 205.83978151 419.23548691 225.62792277 C419.23536704 227.22741609 419.23536704 227.22741609 419.23524475 228.85922241 C419.23516299 229.92686044 419.23508123 230.99449847 419.23499699 232.09448916 C419.23418483 249.38049173 419.25330487 266.66640701 419.28152148 283.95238435 C419.31029412 301.71991088 419.32405927 319.48739492 419.32233393 337.25494534 C419.32167138 347.222511 419.32710381 357.18998522 419.34869003 367.15752983 C419.36695986 375.64794641 419.37120199 384.13823014 419.35767119 392.62865793 C419.35116977 396.95485683 419.35092099 401.28080133 419.36837769 405.60697556 C419.49475538 439.01874597 419.49475538 439.01874597 414.86463928 452.38095093 C414.47645208 453.50198432 414.08826488 454.62301771 413.68831444 455.77802181 C408.95917557 468.61940038 400.33301749 478.77940284 390.86463928 488.38095093 C390.06155334 489.19692749 389.25846741 490.01290405 388.43104553 490.85360718 C372.0305937 506.55387552 351.0011236 512.87171769 328.66607666 512.76863098 C327.17307824 512.77281325 325.680083 512.77829562 324.18709356 512.78495079 C320.11992073 512.79930731 316.05295222 512.79519163 311.98576868 512.78778398 C307.58549474 512.78303012 303.18526362 512.79558171 298.78500366 512.80580139 C290.17803805 512.82295182 281.57114557 512.82383717 272.96416732 512.81858849 C265.9642257 512.81453832 258.9643056 512.81600039 251.96436501 512.82133675 C250.96606517 512.82208517 249.96776534 512.82283359 248.93921399 512.82360469 C246.91081163 512.82513626 244.88240928 512.8266746 242.85400692 512.82821966 C223.85403333 512.84193127 204.85410098 512.83651657 185.85412834 512.82503445 C168.49663277 512.81510486 151.13924384 512.82804039 133.78176471 512.85196864 C115.93158893 512.87638947 98.08146275 512.88596009 80.23127061 512.87931591 C70.22078081 512.87583015 60.21037297 512.87801316 50.19989586 512.89556694 C41.67772491 512.91032634 33.15569365 512.91087574 24.63352533 512.89349603 C20.29121898 512.8850141 15.94916176 512.88276724 11.60686874 512.89814758 C7.62119392 512.91208921 3.63597942 512.90711159 -0.34966942 512.88790835 C-1.78091411 512.88417679 -3.21219653 512.88698685 -4.64340732 512.89752 C-17.70614535 512.98671546 -30.8263008 510.9240991 -42.44786072 504.63095093 C-43.10753845 504.28515991 -43.76721619 503.9393689 -44.44688416 503.58309937 C-67.93154852 490.96566888 -83.4018091 470.20166407 -91.44395447 445.02938843 C-92.75206213 440.01867095 -93.26103616 435.23787818 -93.26958179 430.06510353 C-93.27403964 428.80900201 -93.27849748 427.5529005 -93.28309041 426.2587353 C-93.28300113 424.87252274 -93.2828113 423.48631019 -93.28253174 422.10009766 C-93.28583324 420.6213933 -93.28955941 419.14268984 -93.29367322 417.66398752 C-93.30366904 413.60386549 -93.30740612 409.54375824 -93.31006253 405.48362565 C-93.31397283 401.1030097 -93.32355072 396.72240538 -93.33227539 392.34179688 C-93.3520204 381.7634848 -93.362104 371.1851718 -93.37100318 360.60684592 C-93.37538972 355.6209571 -93.38075562 350.63506935 -93.38599205 345.64918137 C-93.40300316 329.06700422 -93.41749593 312.48482773 -93.42474079 295.9026432 C-93.42665058 291.60130436 -93.42857093 287.29996553 -93.43052673 282.99862671 C-93.43101047 281.92959537 -93.43149421 280.86056403 -93.43199261 279.75913779 C-93.44028769 262.45293729 -93.46561632 245.14680602 -93.49810741 227.84063573 C-93.53121891 210.058492 -93.54919329 192.27638341 -93.55238503 174.49420869 C-93.55454645 164.51601961 -93.56324103 154.53793146 -93.58884621 144.55977249 C-93.61060922 136.05940439 -93.61857619 127.55916175 -93.60887942 119.05876894 C-93.60435077 114.72662693 -93.60613672 110.39474347 -93.62564087 106.06263733 C-93.64338908 102.08595094 -93.64218167 98.10970947 -93.62674358 94.13301758 C-93.62438502 92.70492161 -93.62859856 91.27679386 -93.64057223 89.84874614 C-93.74351933 76.74434078 -91.65889936 63.64772632 -85.32286072 52.00595093 C-84.80356995 51.01474243 -84.80356995 51.01474243 -84.27378845 50.00350952 C-72.57702215 28.12855138 -54.0012708 10.86503762 -30.13536072 3.38095093 C-20.01986421 0.82988602 -10.43791035 -0.05490076 0 0 Z "
     fill="#020202"
     transform="translate(93.13536071777344,-0.380950927734375)"
     id="path2" />
  <path
     d="M0 0 C1.46172561 -0.00346683 2.92344859 -0.0082382 4.38516623 -0.01418173 C8.35661621 -0.02658101 12.32784695 -0.02057253 16.29929721 -0.01122308 C20.6000076 -0.0043869 24.90068238 -0.01493632 29.2013855 -0.02316284 C37.60889063 -0.03645433 46.01631509 -0.03364287 54.42382329 -0.02492492 C61.26162622 -0.0181302 68.09940665 -0.01723936 74.93721199 -0.02049637 C76.40095094 -0.02118592 76.40095094 -0.02118592 77.89426037 -0.0218894 C79.87708366 -0.02284864 81.85990695 -0.02382128 83.84273023 -0.02480717 C102.40588189 -0.03334775 120.968989 -0.02354811 139.53213335 -0.00740607 C155.43359969 0.00599378 171.3350003 0.00366916 187.23646545 -0.01016235 C205.73485872 -0.02624538 224.23321299 -0.03252169 242.73161227 -0.02332556 C244.70715844 -0.02236999 246.68270462 -0.02142688 248.65825081 -0.02049637 C249.63006963 -0.02003354 250.60188846 -0.01957072 251.60315634 -0.01909386 C258.42614068 -0.01651198 265.24910013 -0.02085767 272.07208061 -0.02793503 C280.39655897 -0.03638064 288.72095255 -0.03400597 297.04542129 -0.0180928 C301.28643815 -0.01025074 305.52731406 -0.00704835 309.76832962 -0.01704025 C313.66133929 -0.02607297 317.55407925 -0.02091556 321.44706494 -0.0051076 C322.84460131 -0.00179563 324.24216115 -0.00337145 325.63968205 -0.01073496 C352.29082748 -0.14022975 374.7444373 8.82005521 393.86463928 27.38095093 C405.04680347 38.76839517 412.2936775 52.17984547 416.86463928 67.38095093 C417.20990976 68.47071259 417.55518024 69.56047426 417.91091347 70.68325901 C419.45710551 76.98730398 419.14753063 83.44622029 419.13206482 89.89558411 C419.1358047 91.37530326 419.14040757 92.85502043 419.14579546 94.3347345 C419.15799982 98.38842864 419.15776801 102.44204009 419.15540671 106.4957484 C419.15499788 110.87294649 419.16604428 115.2501183 419.17552185 119.62730408 C419.1921204 128.19984794 419.19763094 136.7723643 419.19874661 145.34492289 C419.19969793 152.31779805 419.20381247 159.29066416 419.21014786 166.26353645 C419.22775968 186.05166982 419.2369872 205.83978151 419.23548691 225.62792277 C419.23536704 227.22741609 419.23536704 227.22741609 419.23524475 228.85922241 C419.23516299 229.92686044 419.23508123 230.99449847 419.23499699 232.09448916 C419.23418483 249.38049173 419.25330487 266.66640701 419.28152148 283.95238435 C419.31029412 301.71991088 419.32405927 319.48739492 419.32233393 337.25494534 C419.32167138 347.222511 419.32710381 357.18998522 419.34869003 367.15752983 C419.36695986 375.64794641 419.37120199 384.13823014 419.35767119 392.62865793 C419.35116977 396.95485683 419.35092099 401.28080133 419.36837769 405.60697556 C419.49475538 439.01874597 419.49475538 439.01874597 414.86463928 452.38095093 C414.47645208 453.50198432 414.08826488 454.62301771 413.68831444 455.77802181 C408.95917557 468.61940038 400.33301749 478.77940284 390.86463928 488.38095093 C390.06155334 489.19692749 389.25846741 490.01290405 388.43104553 490.85360718 C372.0305937 506.55387552 351.0011236 512.87171769 328.66607666 512.76863098 C327.17307824 512.77281325 325.680083 512.77829562 324.18709356 512.78495079 C320.11992073 512.79930731 316.05295222 512.79519163 311.98576868 512.78778398 C307.58549474 512.78303012 303.18526362 512.79558171 298.78500366 512.80580139 C290.17803805 512.82295182 281.57114557 512.82383717 272.96416732 512.81858849 C265.9642257 512.81453832 258.9643056 512.81600039 251.96436501 512.82133675 C250.96606517 512.82208517 249.96776534 512.82283359 248.93921399 512.82360469 C246.91081163 512.82513626 244.88240928 512.8266746 242.85400692 512.82821966 C223.85403333 512.84193127 204.85410098 512.83651657 185.85412834 512.82503445 C168.49663277 512.81510486 151.13924384 512.82804039 133.78176471 512.85196864 C115.93158893 512.87638947 98.08146275 512.88596009 80.23127061 512.87931591 C70.22078081 512.87583015 60.21037297 512.87801316 50.19989586 512.89556694 C41.67772491 512.91032634 33.15569365 512.91087574 24.63352533 512.89349603 C20.29121898 512.8850141 15.94916176 512.88276724 11.60686874 512.89814758 C7.62119392 512.91208921 3.63597942 512.90711159 -0.34966942 512.88790835 C-1.78091411 512.88417679 -3.21219653 512.88698685 -4.64340732 512.89752 C-17.70614535 512.98671546 -30.8263008 510.9240991 -42.44786072 504.63095093 C-43.10753845 504.28515991 -43.76721619 503.9393689 -44.44688416 503.58309937 C-67.93154852 490.96566888 -83.4018091 470.20166407 -91.44395447 445.02938843 C-92.75206213 440.01867095 -93.26103616 435.23787818 -93.26958179 430.06510353 C-93.27403964 428.80900201 -93.27849748 427.5529005 -93.28309041 426.2587353 C-93.28300113 424.87252274 -93.2828113 423.48631019 -93.28253174 422.10009766 C-93.28583324 420.6213933 -93.28955941 419.14268984 -93.29367322 417.66398752 C-93.30366904 413.60386549 -93.30740612 409.54375824 -93.31006253 405.48362565 C-93.31397283 401.1030097 -93.32355072 396.72240538 -93.33227539 392.34179688 C-93.3520204 381.7634848 -93.362104 371.1851718 -93.37100318 360.60684592 C-93.37538972 355.6209571 -93.38075562 350.63506935 -93.38599205 345.64918137 C-93.40300316 329.06700422 -93.41749593 312.48482773 -93.42474079 295.9026432 C-93.42665058 291.60130436 -93.42857093 287.29996553 -93.43052673 282.99862671 C-93.43101047 281.92959537 -93.43149421 280.86056403 -93.43199261 279.75913779 C-93.44028769 262.45293729 -93.46561632 245.14680602 -93.49810741 227.84063573 C-93.53121891 210.058492 -93.54919329 192.27638341 -93.55238503 174.49420869 C-93.55454645 164.51601961 -93.56324103 154.53793146 -93.58884621 144.55977249 C-93.61060922 136.05940439 -93.61857619 127.55916175 -93.60887942 119.05876894 C-93.60435077 114.72662693 -93.60613672 110.39474347 -93.62564087 106.06263733 C-93.64338908 102.08595094 -93.64218167 98.10970947 -93.62674358 94.13301758 C-93.62438502 92.70492161 -93.62859856 91.27679386 -93.64057223 89.84874614 C-93.74351933 76.74434078 -91.65889936 63.64772632 -85.32286072 52.00595093 C-84.80356995 51.01474243 -84.80356995 51.01474243 -84.27378845 50.00350952 C-72.57702215 28.12855138 -54.0012708 10.86503762 -30.13536072 3.38095093 C-20.01986421 0.82988602 -10.43791035 -0.05490076 0 0 Z M-23.06895447 79.65048218 C-32.37113268 92.14316249 -37.4432878 105.7338553 -37.40951538 121.23847961 C-37.41475206 122.42965238 -37.41998874 123.62082514 -37.4253841 124.84809405 C-37.43776523 128.14211831 -37.44122834 131.43592879 -37.4407872 134.72996151 C-37.44243984 138.28779799 -37.45551496 141.845596 -37.46697998 145.40341187 C-37.48979776 153.17861655 -37.49774761 160.95379388 -37.50280643 168.72902751 C-37.50606821 173.58982354 -37.51259373 178.4506117 -37.51980782 183.31140327 C-37.53937215 196.78568103 -37.55577647 210.25995147 -37.55868435 223.73424435 C-37.55887192 224.5959836 -37.55905949 225.45772286 -37.55925274 226.34557543 C-37.55961898 228.09233955 -37.55998268 229.83910368 -37.56034385 231.58586781 C-37.56052667 232.45289612 -37.56070948 233.31992443 -37.56089783 234.21322632 C-37.56107838 235.08132097 -37.56125893 235.94941562 -37.56144495 236.84381617 C-37.56498274 250.89409283 -37.59198116 264.94421586 -37.62939572 278.9944393 C-37.66755523 293.44082489 -37.6868424 307.88713442 -37.68714386 322.33357149 C-37.68772683 330.43606499 -37.69611444 338.53837535 -37.72514153 346.64082146 C-37.74975831 353.54371025 -37.75686961 360.44634918 -37.741894 367.3492701 C-37.73476595 370.86532145 -37.73540205 374.38088046 -37.7583046 377.89687538 C-37.85800291 396.44744359 -37.43020679 412.80540977 -26.13536072 428.38095093 C-25.48825134 429.28329468 -24.84114197 430.18563843 -24.17442322 431.11532593 C-13.36891728 445.23660084 1.5753635 453.73094595 18.86463928 457.38095093 C22.91827512 457.77615427 26.9359684 457.79549856 31.00663757 457.77536011 C32.18010471 457.78145121 33.35357184 457.78754231 34.56259859 457.793818 C37.78868301 457.80749543 41.01444011 457.807927 44.24053836 457.80244303 C47.73221184 457.79975622 51.22382202 457.81433558 54.71546936 457.82653809 C61.54502046 457.84752684 68.37448656 457.85213665 75.20406611 457.8503502 C80.76097186 457.84903896 86.31785125 457.85286513 91.87475204 457.86027527 C93.4797374 457.86237464 95.08472276 457.86447224 96.68970811 457.86656809 C97.48874785 457.86761162 98.28778758 457.86865514 99.11104064 457.86973029 C114.20242049 457.88860713 129.29375167 457.88759067 144.38513844 457.88076097 C158.15966551 457.87519061 171.93400629 457.89599381 185.70848985 457.92912143 C199.88268171 457.96294324 214.05678455 457.97801602 228.23101747 457.97340441 C236.17642069 457.97116786 244.12165188 457.97628246 252.06702042 458.001297 C258.83365223 458.02242049 265.60001775 458.0257939 272.36666091 458.00699741 C275.81197505 457.9979059 279.25679422 457.99649028 282.70206833 458.01735306 C306.7993625 458.13511624 326.15887466 455.37508322 344.32948303 438.04110718 C357.52507269 424.19488753 364.35309141 407.25355721 364.25904846 388.23222351 C364.26818512 386.47096446 364.26818512 386.47096446 364.27750635 384.67412442 C364.29118381 381.44610945 364.29161536 378.2184216 364.28613138 374.9903928 C364.28344461 371.49669346 364.29802379 368.00305737 364.31022644 364.50938416 C364.33121468 357.67615805 364.33582506 350.84301692 364.33403856 344.00976238 C364.3327274 338.45046437 364.33655306 332.8911927 364.34396362 327.33189964 C364.34606298 325.72633702 364.34816058 324.12077439 364.35025644 322.51521176 C364.35129997 321.71589473 364.3523435 320.9165777 364.35341865 320.09303894 C364.37229495 304.99692046 364.37127907 289.90085064 364.36444932 274.80472525 C364.35887784 261.02305616 364.37968708 247.24157318 364.41280979 233.45994756 C364.4466227 219.28011048 364.46170555 205.10036236 364.45709276 190.92048424 C364.45485547 182.97120056 364.45998197 175.02208879 364.48498535 167.07283974 C364.50609719 160.30361752 364.50949351 153.53466145 364.49068576 146.76542792 C364.48158756 143.31821249 364.48019988 139.87149196 364.50104141 136.42431641 C364.62009376 112.03059396 361.0534851 94.26046977 344.67713928 75.21298218 C332.97793823 63.43253667 316.43200053 55.02504088 299.72153449 54.83665311 C298.62735465 54.84421176 297.53317482 54.85177041 296.40583801 54.85955811 C295.21039313 54.85190701 294.01494824 54.84425592 292.78327775 54.83637297 C289.50042995 54.81943342 286.21816237 54.82013076 282.93530059 54.82873416 C279.38093334 54.83370103 275.82666793 54.81560039 272.27233887 54.80065918 C265.32225475 54.77524909 258.37232548 54.77156732 251.42220274 54.77625971 C245.7680513 54.77983618 240.11394659 54.77630515 234.45980072 54.76781082 C233.24939762 54.76602525 233.24939762 54.76602525 232.01454194 54.76420362 C230.37485104 54.76177992 228.73516015 54.75935165 227.09546927 54.75691886 C211.74133348 54.73519961 196.38728568 54.73947747 181.03314498 54.75168855 C167.0154767 54.7620212 152.99808663 54.73952566 138.98047337 54.70149212 C124.55651166 54.66265881 110.13268132 54.64623686 95.70866704 54.65373862 C87.622999 54.65755153 79.53756759 54.65269718 71.45194244 54.62430954 C64.56742084 54.60038173 57.68328148 54.5977828 50.79875413 54.62188987 C47.2927288 54.63359896 43.78740081 54.63606135 40.28142357 54.61188507 C14.77171656 54.47106617 -5.73611223 59.30627745 -23.06895447 79.65048218 Z "
     fill="#020101"
     transform="translate(93.13536071777344,-0.380950927734375)"
     id="path4" />
  <path
     d="M0 0 C1.19217605 -0.00679667 2.38435209 -0.01359334 3.61265469 -0.02059597 C6.90025672 -0.03623463 10.18754704 -0.03856227 13.47517419 -0.03501284 C17.02960198 -0.03439801 20.58395767 -0.05098413 24.13835144 -0.06518555 C31.09517132 -0.0900492 38.05191492 -0.09834762 45.00877553 -0.10002268 C50.66918124 -0.10145127 56.32956193 -0.10763103 61.98995972 -0.11712456 C78.06457864 -0.14353276 94.13913761 -0.15738504 110.21377838 -0.15513314 C111.07941315 -0.15501327 111.94504793 -0.1548934 112.83691406 -0.1547699 C113.7036154 -0.15464726 114.57031674 -0.15452461 115.46328175 -0.15439826 C129.49339117 -0.15318023 143.52325853 -0.18185744 157.553298 -0.224185 C171.98507056 -0.26737815 186.41672536 -0.28798982 200.84856415 -0.28540367 C208.94046759 -0.28441103 217.03211748 -0.29250696 225.1239624 -0.32493782 C232.0169325 -0.35238805 238.90953422 -0.35866948 245.80253559 -0.33840955 C249.31272398 -0.32867948 252.82220756 -0.32819966 256.33232689 -0.3544693 C277.20259809 -0.48198666 293.01517413 1.43450726 309.90869141 14.40113831 C310.55966797 14.87035706 311.21064453 15.33957581 311.88134766 15.82301331 C324.45771361 25.56325117 332.70819863 42.09557715 335.90869141 57.40113831 C336.30287606 61.45710672 336.32323735 65.47695923 336.30310059 69.54986572 C336.30919169 70.72403842 336.31528279 71.89821112 336.32155848 73.10796481 C336.33523593 76.33597978 336.33566749 79.56366763 336.33018351 82.79169643 C336.32749673 86.28539577 336.34207592 89.77903186 336.35427856 93.27270508 C336.37526681 100.10593118 336.37987718 106.93907231 336.37809068 113.77232685 C336.37677952 119.33162486 336.38060518 124.89089653 336.38801575 130.45018959 C336.39011511 132.05575222 336.39221271 133.66131484 336.39430857 135.26687747 C336.39587386 136.46585302 336.39587386 136.46585302 336.39747077 137.68905029 C336.41634707 152.78516877 336.41533119 167.8812386 336.40850145 182.97736398 C336.40292996 196.75903308 336.4237392 210.54051605 336.45686191 224.32214167 C336.49067482 238.50197875 336.50575767 252.68172688 336.50114489 266.86160499 C336.4989076 274.81088868 336.50403409 282.76000045 336.52903748 290.7092495 C336.55014931 297.47847172 336.55354563 304.24742778 336.53473788 311.01666131 C336.52563969 314.46387674 336.524252 317.91059728 336.54509354 321.35777283 C336.66030345 344.96418526 333.79685257 365.02420402 316.63916016 382.83082581 C302.45945782 396.17881456 286.20016675 402.89166136 266.75996399 402.79554749 C265.58579129 402.80163859 264.41161859 402.80772969 263.2018649 402.81400537 C259.97384993 402.82768283 256.74616208 402.82811439 253.51813328 402.82263041 C250.02443394 402.81994363 246.53079785 402.83452282 243.03712463 402.84672546 C236.20389853 402.8677137 229.3707574 402.87232408 222.53750286 402.87053758 C216.97820485 402.86922642 211.41893318 402.87305208 205.85964012 402.88046265 C204.2540775 402.88256201 202.64851487 402.88465961 201.04295224 402.88675547 C200.24363521 402.88779899 199.44431818 402.88884252 198.62077942 402.88991767 C183.52466094 402.90879397 168.42859112 402.90777809 153.33246573 402.90094835 C139.55079664 402.89537686 125.76931366 402.9161861 111.98768804 402.94930881 C97.80785096 402.98312172 83.62810284 402.99820457 69.44822472 402.99359179 C61.49894103 402.9913545 53.54982927 402.99648099 45.60058022 403.02148438 C38.83135799 403.04259621 32.06240193 403.04599253 25.2931684 403.02718478 C21.84595297 403.01808658 18.39923243 403.0166989 14.95205688 403.03754044 C-9.23113522 403.1555653 -28.9558928 399.85516564 -47.09130859 382.40113831 C-59.5288567 369.11354195 -65.40941621 353.53670803 -65.35873413 335.3964386 C-65.36326524 334.20158915 -65.36779636 333.0067397 -65.37246478 331.77568269 C-65.38290195 328.47619113 -65.38444031 325.17691831 -65.38207603 321.87742591 C-65.38166658 318.31218912 -65.39271918 314.7469844 -65.40219116 311.1817627 C-65.41877453 304.20309517 -65.4242995 297.22446144 -65.42541592 290.24577585 C-65.42636767 284.57053057 -65.43048429 278.89529639 -65.43681717 273.22005463 C-65.45442239 257.11420631 -65.46365718 241.0083846 -65.46215622 224.90252659 C-65.46207631 224.03501279 -65.4619964 223.16749899 -65.46191406 222.2736969 C-65.4618323 221.40511851 -65.46175054 220.53654012 -65.4616663 219.64164117 C-65.46085363 205.56934917 -65.47998845 191.49716427 -65.5081908 177.42490324 C-65.53694943 162.96042568 -65.55072945 148.49600029 -65.54900324 134.03149343 C-65.54834037 125.91687701 -65.55378772 117.80237288 -65.57535934 109.68778229 C-65.59361042 102.77823852 -65.59788638 95.86885792 -65.5843405 88.95930043 C-65.57783051 85.43773058 -65.57762158 81.9164734 -65.595047 78.3949337 C-65.61052609 74.56760297 -65.60117215 70.7410863 -65.58578491 66.91377258 C-65.59607204 65.81413579 -65.60635916 64.71449899 -65.61695802 63.58153987 C-65.4725669 47.26116651 -57.41461349 31.00658535 -46.09130859 19.40113831 C-38.50603523 12.70180894 -30.49937594 7.27291987 -21.09130859 3.40113831 C-20.48370886 3.14882055 -19.87610912 2.89650279 -19.25009727 2.63653904 C-12.78516003 0.200972 -6.85853983 -0.028908 0 0 Z M-13.40380859 57.02613831 C-15.75144522 60.33021949 -16.2168278 61.98930937 -16.22273636 65.98772049 C-16.22849808 67.44594439 -16.22849808 67.44594439 -16.23437619 68.93362737 C-16.23350971 70.00928354 -16.23264323 71.08493971 -16.23175049 72.19319153 C-16.23472161 73.32997809 -16.23769273 74.46676466 -16.24075389 75.6379993 C-16.24947318 79.47344097 -16.25095186 83.30885155 -16.25244141 87.14430237 C-16.25652765 89.88359767 -16.26207079 92.62288966 -16.26748657 95.36218262 C-16.28108236 102.82297128 -16.28709671 110.28375458 -16.29149723 117.74455357 C-16.29425786 122.4017174 -16.29849492 127.05887914 -16.3030014 131.71604156 C-16.31519629 144.60595189 -16.32549478 157.49586055 -16.3288765 170.38577652 C-16.32909606 171.21116044 -16.32931563 172.03654437 -16.32954185 172.88693993 C-16.32976012 173.71432146 -16.3299784 174.54170299 -16.33020329 175.39415669 C-16.33064676 177.07080031 -16.33109333 178.74744392 -16.33154297 180.42408752 C-16.3317644 181.25576418 -16.33198583 182.08744084 -16.33221397 182.94431981 C-16.33616173 196.41963866 -16.35361409 209.89490342 -16.37690249 223.37020138 C-16.40060986 237.19938759 -16.41307809 251.02854665 -16.41424441 264.85775352 C-16.41516159 272.62460762 -16.42092434 280.39139129 -16.43906403 288.15822601 C-16.45445683 294.77235264 -16.4595904 301.38638706 -16.45132592 308.00052819 C-16.44741626 311.37549097 -16.44999243 314.7501169 -16.46238327 318.12508202 C-16.47503042 321.78393259 -16.46926488 325.44230374 -16.45880127 329.10115051 C-16.46685767 330.1678838 -16.47491408 331.23461709 -16.48321462 332.33367562 C-16.44159411 338.53951118 -15.99114718 343.29469544 -11.55615234 348.04566956 C-7.54637661 351.11196864 -5.5156504 352.52430523 -0.51031303 352.53815269 C0.46060284 352.54322724 1.43151871 352.54830178 2.43185627 352.5535301 C3.50614821 352.55402785 4.58044014 352.55452561 5.68728638 352.55503845 C6.82266181 352.55942071 7.95803724 352.56380296 9.12781799 352.56831801 C12.958586 352.58174621 16.789331 352.58789391 20.62011719 352.5940094 C23.35616842 352.60137839 26.09221479 352.61017065 28.82826233 352.61878967 C37.05889936 352.64332837 45.28954247 352.65794401 53.52020484 352.67084974 C55.84468949 352.67456093 58.16917354 352.67853424 60.49365759 352.68260241 C74.92566744 352.70784078 89.35767822 352.72989588 103.78970528 352.74233055 C107.13372933 352.7452603 110.47775336 352.74822195 113.82177734 352.75123596 C115.0685054 352.75235504 115.0685054 352.75235504 116.34041987 352.75349672 C129.8014942 352.76614751 143.26243634 352.79936568 156.72344889 352.84103779 C170.54134336 352.88346421 184.35917019 352.9070265 198.17712963 352.91225111 C205.93628293 352.9156647 213.69522979 352.92741329 221.454319 352.96035385 C228.06330351 352.98836548 234.67203927 352.99934898 241.28107853 352.98815839 C244.65244289 352.98297403 248.0228648 352.98857186 251.39422417 353.01062393 C255.05264983 353.03325158 258.70976277 353.02504809 262.36819458 353.00914001 C263.42910218 353.0230221 264.49000979 353.03690419 265.58306611 353.05120695 C272.22865381 352.97999324 276.81159509 351.81490261 281.90869141 347.40113831 C283.82613733 344.95804254 283.82613733 344.95804254 284.90869141 342.40113831 C285.25664597 341.78989463 285.60460054 341.17865096 285.96309918 340.54888475 C287.05854811 338.06076516 287.16035722 336.31193779 287.163167 333.59969521 C287.16899919 332.63053063 287.17483139 331.66136606 287.18084031 330.66283286 C287.17706099 329.60078426 287.17328167 328.53873567 287.16938782 327.44450378 C287.17321336 326.31417548 287.17703891 325.18384717 287.18098038 324.01926649 C287.19132978 320.21763659 287.1873145 316.41615719 287.18334961 312.61451721 C287.18660051 309.89462851 287.19281285 307.17474828 287.19883728 304.4548645 C287.21159689 297.8252407 287.21337638 291.19565738 287.21103702 284.56602336 C287.20925499 279.17762584 287.21100102 273.78924062 287.21526146 268.40084457 C287.21615424 267.25109342 287.21615424 267.25109342 287.21706506 266.07811498 C287.2182768 264.5210265 287.21949093 262.96393802 287.22070744 261.40684955 C287.23158798 246.79893321 287.22941814 232.19103994 287.22332259 217.5831223 C287.2181538 204.21785744 287.22940696 190.85266547 287.24842081 177.48741503 C287.2677909 163.76664195 287.27605662 150.04590336 287.27229756 136.32511652 C287.27038415 128.62089603 287.27288662 120.91673757 287.2870121 113.21252823 C287.29891638 106.65333974 287.3003416 100.09425146 287.28822193 93.53506161 C287.28232622 90.18844289 287.28287493 86.84215807 287.29322433 83.49552727 C287.30363657 79.86742699 287.29563498 76.23982225 287.28291321 72.61174011 C287.29028749 71.55415296 287.29766178 70.49656581 287.30525953 69.40693057 C287.2596015 63.23361382 286.96811283 58.67339858 282.55689132 53.95529574 C277.35986742 49.48679838 271.98721015 49.70028932 265.401474 49.77294922 C264.24816465 49.76585483 263.09485531 49.75876044 261.9065972 49.75145108 C258.71841444 49.7369276 255.53120225 49.74473578 252.34306324 49.76217401 C248.89991759 49.77556926 245.45688305 49.76010333 242.01374817 49.74835205 C235.27415501 49.72998761 228.53485206 49.73847936 221.79526799 49.75644027 C216.31777648 49.7704735 210.84036368 49.77435753 205.36285591 49.770998 C204.58288481 49.77052056 203.80291371 49.77004312 202.99930711 49.76955121 C201.41475822 49.76852487 199.83020935 49.76746951 198.24566049 49.76638544 C184.23931785 49.75782095 170.23311521 49.7744858 156.22680664 49.80421448 C142.63787964 49.83305683 129.0491543 49.8401325 115.46020508 49.82472229 C100.65871344 49.80795999 85.85731752 49.80392577 71.05582339 49.82143265 C69.47745265 49.82327702 67.8990819 49.82511175 66.32071114 49.82693672 C65.54414123 49.82784881 64.76757132 49.8287609 63.96746899 49.82970063 C58.49641795 49.83530543 53.02541366 49.83199943 47.55436516 49.82539177 C40.88723934 49.81765912 34.22031199 49.82440872 27.55322617 49.84956681 C24.15191257 49.862063 20.75090798 49.86820721 17.34958267 49.85702515 C13.66237021 49.84835944 9.9760619 49.86423964 6.28892517 49.88647461 C5.21392964 49.87823384 4.13893411 49.86999308 3.03136295 49.86150259 C-4.6231607 49.94692615 -8.24994221 51.17580349 -13.40380859 57.02613831 Z "
     fill="#FCFCFC"
     transform="translate(121.09130859375,54.59886169433594)"
     id="path6" />
  <path
     d="m 0,0 h 41 l 0.113281,19.703125 c 0.0303,4.138047 0.06147,8.276051 0.0957,12.414062 0.05417,6.556944 0.105285,13.113805 0.137452,19.670899 0.02616,5.291032 0.06664,10.581785 0.11675,15.872642 0.01659,2.010793 0.02815,4.021635 0.03443,6.032486 0.616777,20.772659 -2.727916,39.206516 23.218801,39.245386 26.386116,-0.42783 21.749009,-17.647637 22.795304,-42.137819 0.01687,-2.046952 0.03502,-4.093893 0.0544,-6.140823 0.04727,-5.354292 0.07723,-10.708542 0.10344,-16.062973 0.0352,-6.442202 0.09214,-12.884244 0.145393,-19.326317 C 87.89319,19.5138 87.944002,9.7571355 88,0 h 42 c 0.16044,21.819192 0.16044,21.819192 0.19531,31.210937 0.0238,6.376766 0.0518,12.753298 0.10645,19.129883 0.0439,5.14828 0.0675,10.296311 0.0778,15.444764 0.007,1.95174 0.0216,3.903469 0.0434,5.855102 0.23805,22.216976 -3.01793,39.520604 -15.82773,56.698674 -14.33882,15.46242 -29.96245,19.31226 -49.527502,19.20141 -20.768767,0.33977 -38.630804,-6.5551 -49.438885,-18.89173 C 0.30178819,106.54848 -0.42306979,91.8285 -0.09765625,71.289062 c 0.001866,-2.054086 0.0032891,-4.108174 0.0042877,-6.162261 0.0038106,-5.395511 0.01362841,-10.790994 0.02470398,-16.186493 0.01204816,-6.479522 0.0166233,-12.959054 0.02245331,-19.438584 C -0.03652758,19.667797 -0.0173608,9.8339298 0,0 Z"
     fill="#fbfbfb"
     transform="translate(159,182)"
     id="path8"
     sodipodi:nodetypes="cccccccccccccccccccccccccc" />
  <path
     d="M0 0 C13.86 0 27.72 0 42 0 C42.02802255 10.25002428 42.05130764 20.49995625 42.0625 30.75 C42.06335602 31.52822742 42.06421204 32.30645485 42.06509399 33.10826492 C42.09101484 59.88808137 41.87776486 86.66043802 41.5 113.4375 C41.48804218 114.28551682 41.47608437 115.13353363 41.46376419 116.00724792 C41.31734846 126.33830241 41.15994701 136.66913667 41 147 C27.47 147 13.94 147 0 147 C0 98.49 0 49.98 0 0 Z "
     fill="#FCFCFC"
     transform="translate(311,182)"
     id="path10" />
  <path
     d="M0 0 C1.65 1.65 3.3 3.3 5 5 C2 5 2 5 -0.1875 3 C-0.785625 2.34 -1.38375 1.68 -2 1 C-1.34 0.67 -0.68 0.34 0 0 Z "
     fill="#100F0F"
     transform="translate(174,312)"
     id="path14" />
</svg>
